<?xml version="1.0" encoding="utf-8"?>
<!-- Generator: Adobe Illustrator 17.1.0, SVG Export Plug-In . SVG Version: 6.00 Build 0)  -->
<!DOCTYPE svg PUBLIC "-//W3C//DTD SVG 1.1//EN" "http://www.w3.org/Graphics/SVG/1.1/DTD/svg11.dtd">
<svg version="1.1" id="Layer_1" xmlns="http://www.w3.org/2000/svg" xmlns:xlink="http://www.w3.org/1999/xlink" x="0px" y="0px"
	 viewBox="0 0 293.2 62.4" enable-background="new 0 0 293.2 62.4" xml:space="preserve">
<g>
	<g>
		<path fill="#FFFFFF" d="M14.4,35.2H7v-4.1h20.2v4.1h-7.4v21.7h-5.3V35.2z"/>
		<path fill="#FFFFFF" d="M27.8,38.6h4.4l0.4,3.6c1.1-2.4,3.2-4.2,6.4-4.2v5.1C38.6,43,38.1,43,37.4,43c-2.1,0-4.6,0.9-4.6,5.3v8.7
			h-5V38.6z"/>
		<path fill="#FFFFFF" d="M52.2,56.9c-0.3-0.7-0.5-1.7-0.5-2.6c-0.8,1.8-2.6,3.2-5.4,3.2c-3.8,0-6-2.4-6-5.8c0-3.8,2.8-5.3,7-5.9
			l4.1-0.6v-0.7c0-2.2-1.2-2.6-2.8-2.6c-2.4,0-4.1,1.1-5.3,2.3l-2.4-3.3c1.5-1.5,4.3-2.8,8.3-2.8c5.1,0,7.2,2.2,7.2,6.8v6.9
			c0,2.8,0.1,3.7,0.7,5.2H52.2z M51.3,48.3l-3.2,0.6C45.9,49.3,45,50,45,51.5c0,1.4,0.9,2.5,2.5,2.5c2.1,0,3.8-1.7,3.8-4.5V48.3z"/>
		<path fill="#FFFFFF" d="M60.4,38.6h4.4l0.4,3c1-1.9,3.2-3.5,5.9-3.5c4,0,5.9,2.6,5.9,7.4v11.5h-5V46.6c0-3-1.1-4.3-3-4.3
			c-2.1,0-3.6,1.6-3.6,5.5v9.1h-5V38.6z"/>
		<path fill="#FFFFFF" d="M82.1,51.4c1.1,1.3,3.3,2.4,5.5,2.4c1.3,0,2.7-0.5,2.7-1.8c0-3.4-9.9-1.5-9.9-8.3c0-4,3.6-5.7,7.3-5.7
			c3.1,0,5.4,0.8,7.3,2.2l-2.3,3.3c-1-0.9-3.2-1.9-5.1-1.9c-1.1,0-2.1,0.4-2.1,1.6c0,3.1,9.9,1.7,9.9,8.2c0,4.1-3.8,6.1-7.5,6.1
			c-3.3,0-6.1-0.9-8.1-2.7L82.1,51.4z"/>
		<path fill="#FFFFFF" d="M98.2,31.3h5v4.1h-5V31.3z M98.2,38.6h5v18.3h-5V38.6z"/>
		<path fill="#FFFFFF" d="M108.6,41.8h-3v-3.2h0.6c3.4,0,3.7-2.2,4.2-5.3h3.1v5.3h3.9v3.2h-3.9v9.6c0,1.5,0.4,2.3,1.9,2.3
			c0.5,0,1.1-0.1,1.8-0.4l0.4,3.5c-1.2,0.5-2.4,0.7-3.7,0.7c-4.2,0-5.3-2.3-5.3-5.4V41.8z"/>
		<path fill="#FFFFFF" d="M120.1,31.3h5v4.1h-5V31.3z M120.1,38.6h5v18.3h-5V38.6z"/>
		<path fill="#FFFFFF" d="M128.2,47.7c0-5.5,3.2-9.7,9-9.7c5.9,0,9,4.2,9,9.7c0,5.5-3.1,9.7-9,9.7C131.2,57.5,128.2,53.3,128.2,47.7
			z M141,47.7c0-3.5-1.3-5.9-3.8-5.9c-2.6,0-3.8,2.4-3.8,5.9c0,3.5,1.2,5.9,3.9,5.9C139.8,53.7,141,51.2,141,47.7z"/>
		<path fill="#FFFFFF" d="M149.3,38.6h4.4l0.4,3c1-1.9,3.2-3.5,5.9-3.5c4,0,5.9,2.6,5.9,7.4v11.5h-5V46.6c0-3-1.1-4.3-3-4.3
			c-2.1,0-3.6,1.6-3.6,5.5v9.1h-5V38.6z"/>
		<path fill="#FFFFFF" d="M197,53.5c-1.2,2.3-3.8,4-7.4,4c-8,0-12.3-5.8-12.3-13.5c0-7.9,4.6-13.4,12.5-13.4c4.6,0,8.7,1.9,11.1,5.7
			l-5.1,2.5c-0.9-2.4-3.5-3.6-6-3.6c-4.7,0-6.9,3.9-6.9,8.8c0,4.9,2.5,8.9,6.8,8.9c4.4,0,6.3-3.2,6.3-5.4v-0.6h-5.6v-4.1H201v14.1
			h-3.2L197,53.5z"/>
		<path fill="#FFFFFF" d="M205.3,38.6h4.4l0.4,3.6c1.1-2.4,3.2-4.2,6.4-4.2v5.1c-0.4-0.1-0.9-0.1-1.6-0.1c-2.1,0-4.6,0.9-4.6,5.3
			v8.7h-5V38.6z"/>
		<path fill="#FFFFFF" d="M229.7,56.9c-0.3-0.7-0.5-1.7-0.5-2.6c-0.8,1.8-2.6,3.2-5.4,3.2c-3.8,0-6-2.4-6-5.8c0-3.8,2.8-5.3,7-5.9
			l4.1-0.6v-0.7c0-2.2-1.2-2.6-2.8-2.6c-2.4,0-4.1,1.1-5.3,2.3l-2.4-3.3c1.5-1.5,4.3-2.8,8.3-2.8c5.1,0,7.2,2.2,7.2,6.8v6.9
			c0,2.8,0.1,3.7,0.7,5.2H229.7z M228.8,48.3l-3.2,0.6c-2.2,0.4-3.1,1.2-3.1,2.6c0,1.4,0.9,2.5,2.5,2.5c2.1,0,3.8-1.7,3.8-4.5V48.3z
			"/>
		<path fill="#FFFFFF" d="M237.9,38.6h4.4l0.4,3c1-1.9,3.2-3.5,5.9-3.5c4,0,5.9,2.6,5.9,7.4v11.5h-5V46.6c0-3-1.1-4.3-3-4.3
			c-2.1,0-3.6,1.6-3.6,5.5v9.1h-5V38.6z"/>
		<path fill="#FFFFFF" d="M259.9,41.8h-3v-3.2h0.6c3.4,0,3.7-2.2,4.2-5.3h3.1v5.3h3.9v3.2h-3.9v9.6c0,1.5,0.4,2.3,1.9,2.3
			c0.5,0,1.1-0.1,1.8-0.4l0.4,3.5c-1.2,0.5-2.4,0.7-3.7,0.7c-4.2,0-5.3-2.3-5.3-5.4V41.8z"/>
		<path fill="#FFFFFF" d="M272.6,51.4c1.1,1.3,3.3,2.4,5.5,2.4c1.3,0,2.7-0.5,2.7-1.8c0-3.4-9.9-1.5-9.9-8.3c0-4,3.6-5.7,7.3-5.7
			c3.1,0,5.4,0.8,7.3,2.2l-2.3,3.3c-1-0.9-3.2-1.9-5.1-1.9c-1.1,0-2.1,0.4-2.1,1.6c0,3.1,9.9,1.7,9.9,8.2c0,4.1-3.8,6.1-7.5,6.1
			c-3.3,0-6.1-0.9-8.1-2.7L272.6,51.4z"/>
	</g>
	<g opacity="0.5">
		<path fill="#FFFFFF" d="M41.1,15.7c-1.1,2.1-2.8,3.1-5.2,3.1c-3.9,0-6-3-6-6.9c0-3.9,2.1-6.8,6-6.8c2.2,0,4,0.9,5.1,2.7l-1.6,0.8
			c-0.7-1.3-1.9-2.1-3.5-2.1c-2.8,0-4.2,2.4-4.2,5.3c0,3,1.5,5.5,4.2,5.5c1.7,0,2.9-0.8,3.6-2.4L41.1,15.7z"/>
		<path fill="#FFFFFF" d="M50.1,5.4h7.8v1.3h-6.1V11h4.8v1.3h-4.8v4.9h6.4v1.3h-8.1V5.4z"/>
		<path fill="#FFFFFF" d="M67.1,5.4h2c2.3,4,4.4,7.5,6.3,10.9c-0.1-3.7-0.1-7.3-0.1-10.9h1.6v13.1h-1.9c-2.1-3.7-4.5-7.8-6.3-10.9
			c0.1,3.7,0.1,7.3,0.1,10.9h-1.6V5.4z"/>
		<path fill="#FFFFFF" d="M89.4,6.7h-3.9V5.4h9.4v1.3H91v11.8h-1.7V6.7z"/>
		<path fill="#FFFFFF" d="M103.5,5.4h4.3c2.7,0,4.7,1.1,4.7,3.7c0,2.2-1.6,3.2-3.4,3.4c0.7,0.2,1.1,0.6,1.6,1.4l2.6,4.6h-2l-2.1-3.9
			c-0.6-1.1-1.2-1.7-2.4-1.7h-1.6v5.5h-1.7V5.4z M107.8,11.6c1.7,0,2.8-0.8,2.8-2.5c0-1.6-1.1-2.5-2.9-2.5h-2.6v5H107.8z"/>
		<path fill="#FFFFFF" d="M125.8,5.4h1.5l4.6,13.1h-1.8L129,15H124l-1.2,3.5h-1.7L125.8,5.4z M128.6,13.7c-0.7-2.1-1.4-4.2-2.1-6.4
			c-0.7,2.2-1.4,4.3-2.1,6.4H128.6z"/>
		<path fill="#FFFFFF" d="M140.6,5.4h1.7v11.8h6.3v1.3h-7.9V5.4z"/>
		<path fill="#FFFFFF" d="M157.5,5.4h1.7v13.1h-1.7V5.4z"/>
		<path fill="#FFFFFF" d="M172.7,5.4h1.5l4.6,13.1h-1.8L176,15h-5.1l-1.2,3.5H168L172.7,5.4z M175.5,13.7c-0.7-2.1-1.4-4.2-2.1-6.4
			c-0.7,2.2-1.4,4.3-2.1,6.4H175.5z"/>
		<path fill="#FFFFFF" d="M209.3,15.7c-1.1,2.1-2.8,3.1-5.2,3.1c-3.9,0-6-3-6-6.9c0-3.9,2.1-6.8,6-6.8c2.2,0,4,0.9,5.1,2.7l-1.6,0.8
			c-0.7-1.3-1.9-2.1-3.5-2.1c-2.8,0-4.2,2.4-4.2,5.3c0,3,1.5,5.5,4.2,5.5c1.7,0,2.9-0.8,3.6-2.4L209.3,15.7z"/>
		<path fill="#FFFFFF" d="M217.3,11.9c0-4.2,2.4-6.8,6-6.8c3.6,0,6,2.6,6,6.8c0,4.2-2.5,6.9-6,6.9C219.8,18.8,217.3,16.1,217.3,11.9
			z M227.6,11.9c0-3.1-1.6-5.4-4.3-5.4c-2.7,0-4.2,2.2-4.2,5.4c0,3.2,1.7,5.4,4.2,5.4C226,17.3,227.6,15.1,227.6,11.9z"/>
		<path fill="#FFFFFF" d="M241.6,5.4h1.5l4.6,13.1H246l-1.2-3.5h-5.1l-1.2,3.5h-1.7L241.6,5.4z M244.4,13.7
			c-0.7-2.1-1.4-4.2-2.1-6.4c-0.7,2.2-1.4,4.3-2.1,6.4H244.4z"/>
		<path fill="#FFFFFF" d="M256.4,5.4h1.7v11.8h6.3v1.3h-7.9V5.4z"/>
	</g>
</g>
</svg>
